# Blender v2.92.0 OBJ File: 'boat2.blend'
# www.blender.org
mtllib big_boat.mtl
o Cube
v -6.070762 -0.949881 -2.859673
v -6.070762 3.523684 -2.859673
v 6.021742 3.523684 -2.859673
v 6.021742 -0.949881 -2.859673
v -4.727741 -0.941333 -14.638918
v -4.727741 3.478776 -14.638918
v 4.678720 3.478776 -14.638918
v 4.678720 -0.941333 -14.638918
v -6.070762 -0.949881 2.859673
v -6.070762 3.523684 2.859673
v 6.021742 3.523684 2.859673
v 6.021742 -0.949881 2.859673
v -4.727741 -0.941333 14.638918
v -4.727741 3.478776 14.638918
v 4.678720 3.478776 14.638918
v 4.678720 -0.941333 14.638918
v -0.024510 -0.949881 21.516548
v -0.024510 3.523684 24.087500
v -0.024510 -0.949881 -21.516548
v -0.024510 3.523684 -24.087500
v -0.024510 -6.320131 2.859673
v -0.024510 -6.247409 13.337798
v -4.727741 -0.941333 14.638918
v -4.727741 3.478776 14.638918
v 4.678720 3.478776 14.638918
v 4.678720 -0.941333 14.638918
v -0.024510 -0.949881 21.516548
v -0.024510 3.523684 24.087500
v -0.024510 -6.247409 13.337798
v -6.070762 -0.949881 0.000000
v -6.070762 3.523684 0.000000
v 6.021742 -0.949881 0.000000
v 6.021742 3.523684 0.000000
v -0.024510 -6.320131 0.000000
v -6.070762 1.547641 0.000000
v 0.680295 3.523684 0.000000
v 6.021742 1.026162 0.000000
v 3.351019 -3.322004 0.000000
v -2.695234 -3.948008 0.000000
v -0.024510 -6.320131 -2.859673
v -0.024510 -6.247409 -13.337798
v -4.727741 -0.941333 -14.638918
v -4.727741 3.478776 -14.638918
v 4.678720 3.478776 -14.638918
v 4.678720 -0.941333 -14.638918
v -0.024510 -0.949881 -21.516548
v -0.024510 3.523684 -24.087500
v -0.024510 -6.247409 -13.337798
vt 0.625000 0.750000
vt 0.625000 0.750000
vt 0.875000 0.750000
vt 0.514571 0.000000
vt 0.625000 0.000000
vt 0.625000 0.000000
vt 0.375000 0.000000
vt 0.625000 0.000000
vt 0.375000 0.000000
vt 0.625000 0.000000
vt 0.375000 0.000000
vt 0.375000 0.750000
vt 0.375000 0.750000
vt 0.375000 0.750000
vt 0.625000 0.750000
vt 0.375000 0.750000
vt 0.625000 0.750000
vt 0.485429 0.750000
vt 0.625000 0.750000
vt 0.735429 0.750000
vt 0.625000 0.750000
vt 0.375000 0.750000
vt 0.875000 0.750000
vt 0.625000 0.750000
vt 0.875000 0.750000
vt 0.375000 0.000000
vt 0.625000 0.000000
vt 0.375000 0.000000
vt 0.375000 0.000000
vt 0.375000 0.000000
vt 0.625000 0.000000
vt 0.375000 0.750000
vt 0.375000 0.000000
vt 0.875000 0.750000
vt 0.875000 0.750000
vt 0.375000 0.750000
vt 0.375000 0.750000
vt 0.375000 0.000000
vt 0.375000 0.000000
vt 0.375000 0.750000
vt 0.625000 0.000000
vt 0.375000 0.000000
vt 0.375000 0.000000
vt 0.375000 0.000000
vt 0.375000 0.750000
vt 0.375000 0.750000
vt 0.375000 0.750000
vt 0.375000 0.750000
vn 0.0000 1.0000 0.0048
vn -1.0000 0.0000 0.0000
vn -0.9936 0.0000 -0.1133
vn 0.9936 0.0000 -0.1133
vn 0.9936 0.0000 0.1133
vn 1.0000 0.0000 0.0000
vn 0.0000 1.0000 0.0000
vn 0.0000 1.0000 -0.0048
vn 0.0000 1.0000 0.0038
vn -0.9936 0.0000 0.1133
vn -0.6230 -0.6565 0.4252
vn -0.8666 -0.2486 0.4326
vn -0.7353 -0.6725 0.0843
vn 0.8254 0.0000 0.5645
vn -0.8254 0.0000 -0.5645
vn 0.6641 -0.7477 0.0052
vn -0.6641 -0.7477 -0.0000
vn 0.6230 -0.6565 0.4252
vn 0.8254 0.0000 -0.5645
vn -0.8666 -0.2486 -0.4326
vn -0.6641 -0.7477 -0.0052
vn 0.0000 1.0000 -0.0038
vn 0.8666 -0.2486 -0.4326
vn -0.8254 0.0000 0.5645
vn -0.6641 -0.7477 0.0052
vn 0.8666 -0.2486 0.4326
vn 0.7353 -0.6725 0.0843
vn 0.6641 -0.7477 -0.0000
vn -0.7353 -0.6725 -0.0843
vn 0.6230 -0.6565 -0.4252
vn -0.6230 -0.6565 -0.4252
vn 0.6641 -0.7477 -0.0052
vn 0.7353 -0.6725 -0.0843
usemtl Material
s off
f 7/1/1 20/2/1 6/3/1
f 35/4/2 10/5/2 31/6/2
f 30/7/2 35/4/2 2/8/2 1/9/2
f 1/9/3 6/10/3 5/11/3
f 4/12/4 8/13/4 7/1/4
f 1/9/3 2/8/3 6/10/3
f 12/14/5 15/15/5 16/16/5
f 33/17/6 37/18/6 4/12/6 3/19/6
f 36/20/7 11/21/7 33/17/7
f 37/18/6 12/14/6 32/22/6
f 15/15/8 14/23/8 18/24/8
f 10/25/9 15/15/9 11/21/9
f 9/26/10 14/27/10 10/5/10
f 17/28/11 13/29/11 22/30/11
f 14/27/12 17/28/12 18/31/12
f 9/26/13 22/30/13 13/29/13
f 15/15/14 17/32/14 16/16/14
f 6/10/15 19/33/15 5/11/15
f 31/34/7 36/20/7 3/19/7 2/35/7
f 12/14/16 22/36/16 21/37/16
f 39/38/17 21/39/17 9/26/17 30/7/17
f 16/16/18 17/32/18 22/36/18
f 7/1/19 8/13/19 19/40/19
f 30/7/2 9/26/2 10/5/2 35/4/2
f 6/10/20 20/41/20 19/33/20
f 1/9/21 41/42/21 40/43/21
f 37/18/6 32/22/6 4/12/6
f 2/35/22 3/19/22 7/1/22
f 12/14/5 11/21/5 15/15/5
f 7/1/23 19/40/23 20/2/23
f 31/34/7 10/25/7 11/21/7 36/20/7
f 33/17/6 11/21/6 12/14/6 37/18/6
f 10/25/9 14/23/9 15/15/9
f 9/26/10 13/29/10 14/27/10
f 14/27/24 13/29/24 17/28/24
f 9/26/25 21/39/25 22/30/25
f 15/15/26 18/24/26 17/32/26
f 4/12/4 7/1/4 3/19/4
f 12/14/27 16/16/27 22/36/27
f 39/38/17 34/44/17 21/39/17
f 12/14/28 21/37/28 34/45/28 38/46/28
f 2/35/22 7/1/22 6/3/22
f 1/9/29 5/11/29 41/42/29
f 35/4/2 31/6/2 2/8/2
f 36/20/7 33/17/7 3/19/7
f 12/14/28 38/46/28 32/22/28
f 8/13/30 41/47/30 19/40/30
f 19/33/31 41/42/31 5/11/31
f 4/12/32 40/48/32 41/47/32
f 39/38/17 30/7/17 1/9/17 40/43/17
f 4/12/33 41/47/33 8/13/33
f 39/38/17 40/43/17 34/44/17
f 4/12/28 38/46/28 34/45/28 40/48/28
f 4/12/28 32/22/28 38/46/28
l 13 23
l 14 24
l 15 25
l 16 26
l 17 27
l 18 28
l 22 29
l 5 42
l 6 43
l 7 44
l 8 45
l 19 46
l 20 47
l 41 48
