# Blender v2.92.0 OBJ File: ''
# www.blender.org
mtllib boat4.mtl
o Cube.001
v -1.000000 0.598699 -3.761806
v 1.000000 0.598698 -0.597782
v 1.000000 0.598699 -3.761806
v -1.000000 -0.141192 -0.597782
v -1.000000 0.598698 0.472966
v -1.000000 0.598698 -0.597782
v -1.000000 -0.141191 -3.761806
v 1.000000 -0.141192 -0.597782
v 0.000000 -1.029386 -3.761806
v 1.000000 -0.141191 -3.761806
v 1.000000 -0.141192 0.472966
v 0.777875 0.591271 2.421155
v 0.777875 -0.139779 2.421155
v 0.000000 -1.029387 -0.597782
v 1.000000 0.598698 0.472966
v -0.777875 0.591271 2.421155
v 0.000000 0.598697 3.983873
v -1.000000 -0.141192 0.472966
v 0.000000 -0.141193 3.558659
v -0.777875 -0.139779 2.421155
v 0.000000 -1.017360 2.205961
v 0.000000 -1.029387 0.472966
v -0.520305 0.598698 -3.224478
v -0.520305 1.191133 -3.224478
v 0.534840 0.598698 -3.224478
v 0.534840 1.191133 -3.224478
v -0.520305 0.598698 -0.871285
v -0.520305 1.191133 -0.871285
v 0.534840 0.598698 -0.871285
v 0.534840 1.191133 -0.871285
v -0.276719 1.191133 -2.931761
v -0.276719 1.543442 -2.931761
v 0.177371 1.191133 -2.931761
v 0.177371 1.543442 -2.931761
v -0.276719 1.191133 -1.536754
v -0.276719 1.543442 -1.536754
v 0.177371 1.191133 -1.536754
v 0.177371 1.543442 -1.536754
v -0.110097 1.543442 -2.756392
v -0.110097 1.804518 -2.756392
v 0.029735 1.543442 -2.756392
v 0.029735 1.804518 -2.756392
v -0.110097 1.543442 -2.554017
v -0.110097 1.804518 -2.554017
v 0.029735 1.543442 -2.554017
v 0.029735 1.804518 -2.554017
v -0.410267 0.720909 -0.871283
v -0.410267 0.720909 -0.711116
v -0.410267 1.065660 -0.871283
v -0.410267 1.065660 -0.711116
v 0.441463 0.720909 -0.871283
v 0.441463 0.720909 -0.711116
v 0.441463 1.065660 -0.871283
v 0.441463 1.065660 -0.711116
v 0.534840 0.751129 -3.083534
v 0.608567 0.751129 -3.083534
v 0.534840 0.751129 -1.040218
v 0.608567 0.751129 -1.040218
v 0.534840 1.048038 -3.083534
v 0.608568 1.048038 -3.083534
v 0.534840 1.048038 -1.040218
v 0.608567 1.048038 -1.040218
v -0.520305 1.024929 -3.040082
v -0.583460 1.024929 -3.040082
v -0.520305 1.024929 -1.106036
v -0.583460 1.024929 -1.106036
v -0.520305 0.743221 -3.040082
v -0.583460 0.743221 -3.040082
v -0.520305 0.743221 -1.106036
v -0.583460 0.743221 -1.106036
vt 0.625000 0.000000
vt 0.375000 0.250000
vt 0.375000 0.000000
vt 0.625000 0.250000
vt 0.375000 0.500000
vt 0.625000 0.500000
vt 0.375000 0.750000
vt 0.625000 0.750000
vt 0.375000 1.000000
vt 0.125000 0.750000
vt 0.125000 0.500000
vt 0.875000 0.750000
vt 0.625000 0.000000
vt 0.375000 0.250000
vt 0.375000 0.000000
vt 0.625000 0.250000
vt 0.375000 0.500000
vt 0.625000 0.500000
vt 0.375000 0.750000
vt 0.625000 0.750000
vt 0.375000 1.000000
vt 0.125000 0.500000
vt 0.125000 0.750000
vt 0.875000 0.750000
vt 0.625000 0.000000
vt 0.375000 0.250000
vt 0.375000 0.000000
vt 0.625000 0.250000
vt 0.375000 0.500000
vt 0.625000 0.500000
vt 0.375000 0.750000
vt 0.625000 0.750000
vt 0.375000 1.000000
vt 0.125000 0.750000
vt 0.125000 0.500000
vt 0.875000 0.500000
vt 0.625000 0.000000
vt 0.375000 0.250000
vt 0.375000 0.000000
vt 0.625000 0.250000
vt 0.375000 0.500000
vt 0.625000 0.500000
vt 0.375000 0.750000
vt 0.625000 0.750000
vt 0.375000 1.000000
vt 0.125000 0.750000
vt 0.125000 0.500000
vt 0.875000 0.500000
vt 0.625000 0.000000
vt 0.375000 0.250000
vt 0.375000 0.000000
vt 0.625000 0.250000
vt 0.375000 0.500000
vt 0.625000 0.500000
vt 0.375000 0.750000
vt 0.625000 1.000000
vt 0.375000 1.000000
vt 0.125000 0.750000
vt 0.125000 0.500000
vt 0.875000 0.500000
vt 0.625000 0.750000
vt 0.625000 0.000000
vt 0.375000 0.250000
vt 0.375000 0.000000
vt 0.625000 0.250000
vt 0.375000 0.500000
vt 0.625000 0.500000
vt 0.375000 0.750000
vt 0.625000 0.750000
vt 0.375000 1.000000
vt 0.125000 0.750000
vt 0.125000 0.500000
vt 0.875000 0.500000
vt 0.625000 1.000000
vt 0.875000 0.750000
vt 0.625000 1.000000
vt 0.875000 0.500000
vt 0.625000 1.000000
vt 0.875000 0.500000
vt 0.625000 1.000000
vt 0.875000 0.750000
vt 0.625000 1.000000
vt 0.875000 0.750000
vt 0.875000 0.750000
vt 0.875000 0.500000
vt 0.625000 0.750000
vt 0.625000 0.500000
vt 0.375000 0.000000
vt 0.625000 0.000000
vt 0.625000 0.000000
vt 0.375000 0.250000
vt 0.375000 0.750000
vt 0.375000 0.500000
vt 0.375000 0.500000
vt 0.625000 0.250000
vt 0.375000 0.750000
vt 0.625000 0.750000
vt 0.375000 0.750000
vt 0.375000 0.000000
vt 0.875000 0.750000
vt 0.625000 0.750000
vt 0.875000 0.750000
vt 0.625000 0.750000
vt 0.875000 0.750000
vt 0.375000 0.000000
vt 0.625000 0.000000
vt 0.375000 0.000000
vt 0.375000 0.000000
vt 0.375000 0.000000
vt 0.625000 0.000000
vt 0.375000 0.750000
vt 0.375000 0.250000
vt 0.375000 0.750000
vt 0.375000 0.750000
vt 0.375000 0.750000
vt 0.375000 0.000000
vn 0.0000 0.0000 -1.0000
vn 1.0000 -0.0000 0.0000
vn 0.0000 -0.0000 1.0000
vn -1.0000 -0.0000 -0.0000
vn 0.0000 -1.0000 -0.0000
vn 0.0000 1.0000 0.0000
vn 0.6641 -0.7477 -0.0000
vn 0.9936 0.0000 0.1133
vn -0.6641 -0.7477 -0.0000
vn -0.0000 1.0000 0.0044
vn 0.0000 1.0000 -0.0040
vn 0.0000 1.0000 -0.0048
vn -0.0000 1.0000 0.0036
vn -0.9936 0.0000 0.1133
vn -0.6230 -0.6565 0.4252
vn -0.8666 -0.2486 0.4326
vn -0.7353 -0.6725 0.0843
vn 0.8254 0.0000 0.5645
vn 0.6640 -0.7477 -0.0005
vn 0.6641 -0.7477 0.0052
vn 0.6641 -0.7477 0.0026
vn -0.6641 -0.7477 0.0001
vn -0.6641 -0.7477 0.0046
vn 0.6230 -0.6565 0.4252
vn -0.8254 0.0000 0.5645
vn -0.6641 -0.7477 0.0052
vn 0.8666 -0.2486 0.4326
vn 0.7353 -0.6725 0.0843
usemtl Material.001
s off
f 24/1/1 25/2/1 23/3/1
f 26/4/2 29/5/2 25/2/2
f 30/6/3 27/7/3 29/5/3
f 28/8/4 23/9/4 27/7/4
f 29/5/5 23/10/5 25/11/5
f 30/6/6 24/12/6 28/8/6
f 32/13/1 33/14/1 31/15/1
f 34/16/2 37/17/2 33/14/2
f 38/18/3 35/19/3 37/17/3
f 36/20/4 31/21/4 35/19/4
f 33/22/5 35/19/5 31/23/5
f 38/18/6 32/24/6 36/20/6
f 40/25/1 41/26/1 39/27/1
f 42/28/2 45/29/2 41/26/2
f 46/30/3 43/31/3 45/29/3
f 44/32/4 39/33/4 43/31/4
f 45/29/5 39/34/5 41/35/5
f 42/36/6 44/32/6 46/30/6
f 48/37/4 49/38/4 47/39/4
f 50/40/6 53/41/6 49/38/6
f 54/42/2 51/43/2 53/41/2
f 52/44/5 47/45/5 51/43/5
f 53/41/1 47/46/1 49/47/1
f 50/48/3 52/44/3 54/42/3
f 56/49/5 57/50/5 55/51/5
f 58/52/3 61/53/3 57/50/3
f 62/54/6 59/55/6 61/53/6
f 59/55/1 56/56/1 55/57/1
f 61/53/4 55/58/4 57/59/4
f 58/60/2 60/61/2 62/54/2
f 64/62/6 65/63/6 63/64/6
f 66/65/3 69/66/3 65/63/3
f 70/67/5 67/68/5 69/66/5
f 68/69/1 63/70/1 67/68/1
f 69/66/2 63/71/2 65/72/2
f 66/73/4 68/69/4 70/67/4
f 64/62/6 66/65/6 65/63/6
f 66/65/3 70/67/3 69/66/3
f 70/67/5 68/69/5 67/68/5
f 68/69/1 64/74/1 63/70/1
f 69/66/2 67/68/2 63/71/2
f 66/73/4 64/75/4 68/69/4
f 24/1/1 26/4/1 25/2/1
f 26/4/2 30/6/2 29/5/2
f 30/6/3 28/8/3 27/7/3
f 28/8/4 24/76/4 23/9/4
f 29/5/5 27/7/5 23/10/5
f 30/6/6 26/77/6 24/12/6
f 32/13/1 34/16/1 33/14/1
f 34/16/2 38/18/2 37/17/2
f 38/18/3 36/20/3 35/19/3
f 36/20/4 32/78/4 31/21/4
f 33/22/5 37/17/5 35/19/5
f 38/18/6 34/79/6 32/24/6
f 40/25/1 42/28/1 41/26/1
f 42/28/2 46/30/2 45/29/2
f 46/30/3 44/32/3 43/31/3
f 44/32/4 40/80/4 39/33/4
f 45/29/5 43/31/5 39/34/5
f 42/36/6 40/81/6 44/32/6
f 48/37/4 50/40/4 49/38/4
f 50/40/6 54/42/6 53/41/6
f 54/42/2 52/44/2 51/43/2
f 52/44/5 48/82/5 47/45/5
f 53/41/1 51/43/1 47/46/1
f 50/48/3 48/83/3 52/44/3
f 56/49/5 58/52/5 57/50/5
f 58/52/3 62/54/3 61/53/3
f 62/54/6 60/61/6 59/55/6
f 59/55/1 60/61/1 56/56/1
f 61/53/4 59/55/4 55/58/4
f 58/60/2 56/84/2 60/61/2
s 1
f 1/85/6 2/86/6 3/87/6
f 4/88/4 5/89/4 6/90/4
f 6/90/4 7/91/4 4/88/4
f 8/92/7 9/93/7 10/94/7
f 3/87/2 8/92/2 10/94/2
f 1/95/1 10/94/1 7/91/1
f 11/96/8 12/97/8 13/98/8
f 7/91/9 14/99/9 4/88/9
f 6/100/6 15/101/6 2/86/6
f 2/86/2 11/96/2 8/92/2
f 12/97/10 16/102/11 17/103/12
f 5/104/13 12/97/10 15/101/6
f 18/105/14 16/106/14 5/89/14
f 19/107/15 20/108/15 21/109/15
f 16/106/16 19/107/16 17/110/16
f 18/105/17 21/109/17 20/108/17
f 12/97/18 19/111/18 13/98/18
f 7/91/1 10/94/1 9/112/1
f 11/96/19 14/113/7 8/92/7
f 11/96/19 21/114/20 22/115/21
f 4/88/9 22/116/22 18/105/23
f 13/98/24 19/111/24 21/114/24
f 1/85/6 6/100/6 2/86/6
f 4/88/4 18/105/4 5/89/4
f 6/90/4 1/95/4 7/91/4
f 8/92/7 14/113/7 9/93/7
f 3/87/2 2/86/2 8/92/2
f 1/95/1 3/87/1 10/94/1
f 11/96/8 15/101/8 12/97/8
f 7/91/9 9/112/9 14/99/9
f 6/100/6 5/104/13 15/101/6
f 2/86/2 15/101/2 11/96/2
f 5/104/13 16/102/11 12/97/10
f 18/105/14 20/108/14 16/106/14
f 16/106/25 20/108/25 19/107/25
f 18/105/23 22/116/22 21/109/26
f 12/97/27 17/103/27 19/111/27
f 11/96/19 22/115/21 14/113/7
f 11/96/28 13/98/28 21/114/28
f 4/88/9 14/99/9 22/116/22
