# Blender v2.92.0 OBJ File: 'boat.blend'
# www.blender.org
mtllib boat3.mtl
o Cube
v 1.000000 0.598698 -3.761806
v 1.000000 -0.510772 -3.761806
v 1.000000 0.598698 -0.597782
v 1.000000 -0.510772 -0.597782
v -1.000000 0.598698 -3.761806
v -1.000000 -0.510772 -3.761806
v -1.000000 0.598698 -0.597782
v -1.000000 -0.510772 -0.597782
v -1.000000 -0.510772 0.472966
v -1.000000 0.598698 0.472966
v 1.000000 0.598698 0.472966
v 1.000000 -0.510772 0.472966
v -0.777875 -0.509358 2.421155
v -0.777875 0.591271 2.421155
v 0.777875 0.591271 2.421155
v 0.777875 -0.509358 2.421155
v 0.000000 -0.510772 3.558659
v 0.000000 0.598698 3.983873
vt 0.875000 0.500000
vt 0.625000 0.750000
vt 0.625000 0.500000
vt 0.375000 0.000000
vt 0.625000 0.000000
vt 0.625000 0.000000
vt 0.375000 0.250000
vt 0.375000 0.750000
vt 0.375000 0.500000
vt 0.625000 0.250000
vt 0.375000 0.750000
vt 0.625000 0.750000
vt 0.375000 0.750000
vt 0.875000 0.750000
vt 0.625000 0.750000
vt 0.875000 0.750000
vt 0.625000 0.750000
vt 0.875000 0.750000
vt 0.375000 0.000000
vt 0.625000 0.000000
vt 0.375000 0.000000
vt 0.625000 0.000000
vt 0.375000 0.750000
vt 0.375000 0.000000
vn 0.0000 1.0000 0.0000
vn -1.0000 0.0000 0.0000
vn 1.0000 0.0000 0.0000
vn 0.0000 0.0000 -1.0000
vn 0.9936 0.0000 0.1133
vn 0.0000 1.0000 -0.0048
vn 0.0000 1.0000 0.0038
vn -0.9936 0.0000 0.1133
vn -0.8821 -0.1686 0.4399
vn 0.8254 0.0000 0.5645
vn -0.8254 0.0000 0.5645
vn 0.8821 -0.1686 0.4399
vn 0.0000 -1.0000 -0.0012
vn 0.0000 -1.0000 0.0007
vn 0.0000 -1.0000 0.0000
usemtl Material
s off
f 5/1/1 3/2/1 1/3/1
f 8/4/2 10/5/2 7/6/2
f 7/6/2 6/7/2 8/4/2
f 1/3/3 4/8/3 2/9/3
f 5/10/4 2/9/4 6/7/4
f 12/11/5 15/12/5 16/13/5
f 7/14/1 11/15/1 3/2/1
f 3/2/3 12/11/3 4/8/3
f 15/12/6 14/16/6 18/17/6
f 10/18/7 15/12/7 11/15/7
f 9/19/8 14/20/8 10/5/8
f 14/20/9 17/21/9 18/22/9
f 15/12/10 17/23/10 16/13/10
f 5/1/1 7/14/1 3/2/1
f 8/4/2 9/19/2 10/5/2
f 7/6/2 5/10/2 6/7/2
f 1/3/3 3/2/3 4/8/3
f 5/10/4 1/3/4 2/9/4
f 12/11/5 11/15/5 15/12/5
f 7/14/1 10/18/1 11/15/1
f 3/2/3 11/15/3 12/11/3
f 10/18/7 14/16/7 15/12/7
f 9/19/8 13/24/8 14/20/8
f 14/20/11 13/24/11 17/21/11
f 15/12/12 18/17/12 17/23/12
f 17/21/13 13/24/13 16/13/13
f 13/24/14 9/19/14 16/13/14
f 16/13/14 9/19/14 12/11/14
f 9/19/15 8/4/15 12/11/15
f 12/11/15 8/4/15 4/8/15
f 8/4/15 6/7/15 4/8/15
f 2/9/15 4/8/15 6/7/15
