# Blender v2.92.0 OBJ File: ''
# www.blender.org
mtllib detailed_boat2.mtl
o Cube.001
v 0.777875 0.591271 -2.421155
v 0.000000 0.598699 -3.983873
v -0.777875 0.591271 -2.421155
v -1.000000 0.271877 0.000000
v -1.000000 0.598698 0.472966
v -1.000000 0.598698 0.000000
v -1.000000 -0.141192 -0.000000
v -1.000000 0.598698 -0.472966
v -1.000000 -0.141192 -0.472966
v -0.777875 -0.139779 -2.421155
v 1.000000 -0.141192 -0.472966
v 0.777875 -0.139779 -2.421155
v 1.000000 -0.141192 0.472966
v 0.777875 0.591271 2.421155
v 0.777875 -0.139779 2.421155
v 1.000000 0.598698 0.000000
v 1.000000 0.185629 0.000000
v 1.000000 0.598698 -0.472966
v 0.116569 0.598698 0.000000
v 1.000000 0.598698 0.472966
v 1.000000 -0.141192 -0.000000
v -0.777875 0.591271 2.421155
v 0.000000 0.598697 3.983873
v -1.000000 -0.141192 0.472966
v 0.000000 -0.141193 3.558659
v -0.777875 -0.139779 2.421155
v 0.000000 -1.017360 2.205961
v 0.000000 -0.141191 -3.558659
v 0.000000 -1.029387 0.472966
v -0.441716 -0.637058 -0.000000
v 0.000000 -1.017360 -2.205961
v 0.000000 -1.029387 -0.472966
v 0.000000 -1.029387 -0.000000
v 0.558284 -0.533522 -0.000000
v -0.777875 -0.139779 2.421155
v -0.777875 0.591271 2.421155
v 0.777875 0.591271 2.421155
v 0.777875 -0.139779 2.421155
v 0.000000 -0.141193 3.558659
v 0.000000 0.598697 3.983873
v 0.000000 -1.017360 2.205961
v -0.777875 -0.139779 -2.421155
v -0.777875 0.591271 -2.421155
v 0.777875 0.591271 -2.421155
v 0.777875 -0.139779 -2.421155
v 0.000000 -0.141191 -3.558659
v 0.000000 0.598699 -3.983873
v 0.000000 -1.017360 -2.205961
v 0.388938 0.594985 -3.202514
v 0.000000 0.591271 -2.421155
v -1.000000 0.435287 0.236483
v -1.000000 0.435288 0.000000
v -1.000000 0.065342 0.000000
v -1.000000 0.435288 -0.236483
v -1.000000 -0.141192 -0.236483
v -0.888937 -0.140485 -1.447060
v 0.888937 0.225040 -1.447060
v 0.888937 -0.140485 -1.447060
v 0.888937 0.225039 1.447060
v 0.888937 -0.140486 1.447060
v 1.000000 0.392164 0.000000
v 1.000000 0.598698 -0.236483
v 0.558285 0.598698 0.000000
v -0.388938 0.594985 -3.202514
v 1.000000 0.022218 0.000000
v 0.000000 0.591271 2.421155
v 0.388938 0.594984 3.202514
v -0.388938 0.594984 3.202514
v -0.388938 0.225039 2.989907
v -0.388938 -0.140486 2.989907
v 0.000000 -0.579276 2.882310
v -0.388938 0.225040 -2.989907
v -0.888937 0.225039 1.447060
v -0.720858 -0.389125 -0.000000
v -0.500000 -0.579276 -1.339464
v -0.500000 -0.585289 -0.472966
v -0.220858 -0.833223 -0.000000
v 0.779142 -0.337357 0.236483
v -0.777875 -0.139779 2.421155
v -0.777875 0.591271 2.421155
v 0.777875 0.591271 2.421155
v 0.777875 -0.139779 2.421155
v 0.000000 -0.141193 3.558659
v 0.000000 0.598697 3.983873
v 0.000000 -1.017360 2.205961
v -0.777875 -0.139779 -2.421155
v -0.777875 0.591271 -2.421155
v 0.777875 0.591271 -2.421155
v 0.777875 -0.139779 -2.421155
v 0.000000 -0.141191 -3.558659
v 0.000000 0.598699 -3.983873
v 0.000000 -1.017360 -2.205961
v -0.888937 0.594985 -1.447060
v -0.888937 -0.140486 1.447060
v 0.777875 0.225746 -2.421155
v -0.888937 0.225040 -1.447060
v -1.000000 0.598698 0.236483
v -0.500000 -0.579276 1.339463
v -0.777875 0.225746 -2.421155
v -0.500000 -0.585290 0.472966
v 0.779142 -0.337357 -0.000000
v -0.388938 -0.578570 2.313558
v -1.000000 0.598698 -0.236483
v 0.888937 0.594985 -1.447060
v 0.000000 -1.023374 1.339463
v -1.000000 0.228753 -0.472966
v -0.111063 0.594984 1.447061
v 0.000000 -0.579275 -2.882310
v -0.220858 -0.833223 0.236483
v 0.558285 0.598698 -0.236483
v 0.000000 0.598698 0.472966
v 0.000000 -1.029387 0.236483
v -0.441715 0.598698 0.000000
v -0.220858 -0.833222 -0.236483
v 0.388938 0.225040 -2.989907
v -0.888937 0.594984 1.447061
v 0.000000 -1.023373 -1.339464
v 0.000000 0.598698 -0.472966
v 0.000000 0.228754 -3.771266
v -1.000000 0.228753 0.472966
v 0.000000 -1.029387 -0.236483
v 1.000000 0.022219 -0.236483
v -1.000000 -0.141192 0.236483
v 1.000000 0.228753 -0.472966
v 0.279142 -0.781455 -0.000000
v 0.777875 0.225746 2.421155
v 1.000000 0.022218 0.236483
v -0.111062 0.594985 -1.447060
v 1.000000 -0.141192 -0.236483
v 1.000000 0.228753 0.472966
v -0.777875 0.225746 2.421155
v 1.000000 -0.141192 0.236483
v 0.888937 0.594984 1.447061
v -0.388938 -0.140485 -2.989907
v 0.000000 0.228752 3.771266
v 1.000000 0.598698 0.236483
v -0.388938 -0.578569 -2.313558
v 0.388938 -0.140485 -2.989907
v 0.388938 0.225039 2.989907
v 0.500000 -0.579276 1.339463
v 0.500000 -0.579276 -1.339464
v 0.388938 -0.140486 2.989907
v 0.500000 -0.585289 -0.472966
v 0.500000 -0.585290 0.472966
v 0.388938 -0.578569 -2.313558
v 0.558285 0.598698 0.236483
v 0.388938 -0.578570 2.313558
v 0.779142 -0.337357 -0.236483
v 0.389571 -0.683372 -0.236483
v -0.610429 -0.487207 -0.236483
v 0.389571 -0.683372 0.236483
v 1.000000 0.310458 0.236483
v -0.220858 0.598698 0.236483
v -1.000000 0.147048 0.236483
v -0.610429 -0.487207 0.236483
v -0.220858 0.598698 -0.236483
v 1.000000 0.310458 -0.236483
v -1.000000 0.147048 -0.236483
vt 0.625000 0.750000
vt 0.625000 0.750000
vt 0.750000 0.750000
vt 0.514571 0.000000
vt 0.569785 0.000000
vt 0.569785 0.000000
vt 0.472393 0.000000
vt 0.569785 0.000000
vt 0.625000 0.000000
vt 0.500000 0.000000
vt 0.375000 0.000000
vt 0.500000 0.000000
vt 0.375000 0.000000
vt 0.375000 0.750000
vt 0.375000 0.750000
vt 0.500000 0.750000
vt 0.375000 0.750000
vt 0.500000 0.750000
vt 0.375000 0.750000
vt 0.527607 0.750000
vt 0.430214 0.750000
vt 0.500000 0.750000
vt 0.735429 0.750000
vt 0.680215 0.750000
vt 0.680215 0.750000
vt 0.485429 0.750000
vt 0.430214 0.750000
vt 0.430214 0.750000
vt 0.625000 0.750000
vt 0.750000 0.750000
vt 0.625000 0.750000
vt 0.875000 0.750000
vt 0.750000 0.750000
vt 0.750000 0.750000
vt 0.375000 0.000000
vt 0.500000 0.000000
vt 0.500000 0.000000
vt 0.375000 0.000000
vt 0.375000 0.000000
vt 0.375000 0.000000
vt 0.625000 0.000000
vt 0.500000 0.000000
vt 0.625000 0.000000
vt 0.375000 0.000000
vt 0.375000 0.000000
vt 0.500000 0.750000
vt 0.500000 0.750000
vt 0.625000 0.000000
vt 0.500000 0.000000
vt 0.500000 0.000000
vt 0.777607 0.750000
vt 0.680215 0.750000
vt 0.625000 0.750000
vt 0.750000 0.750000
vt 0.375000 0.750000
vt 0.375000 0.750000
vt 0.375000 0.000000
vt 0.375000 0.000000
vt 0.375000 0.000000
vt 0.375000 0.750000
vt 0.375000 0.750000
vt 0.375000 0.750000
vt 0.500000 0.750000
vt 0.500000 0.750000
vt 0.472393 0.000000
vt 0.625000 0.000000
vt 0.625000 0.000000
vt 0.375000 0.000000
vt 0.375000 0.000000
vt 0.875000 0.750000
vt 0.750000 0.750000
vt 0.500000 0.750000
vt 0.777607 0.750000
vt 0.625000 0.750000
vt 0.527607 0.750000
vt 0.875000 0.750000
vt 0.500000 0.000000
vt 0.375000 0.000000
vt 0.375000 0.000000
vt 0.375000 0.000000
vt 0.375000 0.750000
vt 0.375000 0.750000
vt 0.375000 0.750000
vt 0.375000 0.750000
vt 0.875000 0.750000
vt 0.375000 0.750000
vt 0.375000 0.750000
vt 0.375000 0.750000
vt 0.375000 0.750000
vt 0.375000 0.750000
vt 0.375000 0.000000
vt 0.375000 0.000000
vt 0.375000 0.000000
vt 0.375000 0.750000
vt 0.375000 0.750000
vt 0.375000 0.000000
vt 0.375000 0.000000
vt 0.375000 0.000000
vt 0.375000 0.750000
vt 0.375000 0.750000
vt 0.375000 0.750000
vt 0.375000 0.750000
vt 0.375000 0.750000
vt 0.375000 0.750000
vt 0.375000 0.750000
vt 0.375000 0.750000
vt 0.375000 0.000000
vt 0.375000 0.000000
vt 0.375000 0.000000
vt 0.375000 0.750000
vt 0.375000 0.000000
vt 0.375000 0.000000
vt 0.375000 0.750000
vt 0.375000 0.000000
vt 0.375000 0.000000
vt 0.375000 0.000000
vt 0.375000 0.750000
vt 0.375000 0.750000
vt 0.625000 0.750000
vt 0.625000 0.750000
vt 0.625000 0.000000
vt 0.625000 0.000000
vt 0.875000 0.750000
vt 0.375000 0.750000
vt 0.375000 0.000000
vt 0.375000 0.000000
vt 0.375000 0.750000
vt 0.625000 0.750000
vt 0.500000 0.750000
vt 0.375000 0.750000
vt 0.625000 0.750000
vt 0.375000 0.000000
vt 0.375000 0.000000
vt 0.375000 0.000000
vt 0.875000 0.750000
vt 0.555215 0.750000
vt 0.625000 0.750000
vt 0.805215 0.750000
vt 0.875000 0.750000
vt 0.875000 0.750000
vt 0.500000 0.750000
vt 0.625000 0.750000
vt 0.625000 0.750000
vt 0.375000 0.000000
vt 0.500000 0.000000
vt 0.625000 0.000000
vt 0.444786 0.000000
vt 0.375000 0.750000
vt 0.375000 0.750000
vt 0.875000 0.750000
vt 0.375000 0.000000
vt 0.500000 0.000000
vt 0.625000 0.000000
vt 0.625000 0.000000
vt 0.750000 0.750000
vt 0.625000 0.000000
vt 0.625000 0.000000
vt 0.750000 0.750000
vn -0.0000 1.0000 -0.0045
vn -0.0002 1.0000 0.0007
vn 0.0042 1.0000 0.0005
vn -1.0000 0.0000 0.0000
vn -0.9936 0.0000 -0.1133
vn 0.9936 0.0000 -0.1133
vn 0.9936 0.0000 0.1133
vn 1.0000 -0.0000 0.0000
vn 0.0000 1.0000 0.0000
vn 0.0000 1.0000 -0.0007
vn -0.0000 1.0000 0.0045
vn 0.0029 1.0000 0.0026
vn 0.0000 1.0000 -0.0048
vn -0.0000 1.0000 0.0037
vn 0.0003 1.0000 0.0009
vn -0.0019 1.0000 0.0019
vn -0.9936 0.0000 0.1133
vn -0.6230 -0.6565 0.4252
vn -0.8666 -0.2486 0.4326
vn -0.7353 -0.6725 0.0843
vn 0.8254 0.0000 0.5645
vn -0.8254 0.0000 -0.5645
vn 0.0009 1.0000 0.0000
vn 0.0010 1.0000 -0.0005
vn -0.0013 1.0000 -0.0005
vn 0.6640 -0.7477 -0.0005
vn 0.6651 -0.7467 0.0033
vn 0.6635 -0.7482 0.0032
vn -0.6636 -0.7481 0.0011
vn -0.6660 -0.7459 0.0026
vn -0.6641 -0.7477 0.0046
vn -0.6651 -0.7468 0.0023
vn 0.6230 -0.6565 0.4252
vn 0.8254 0.0000 -0.5645
vn -0.8666 -0.2486 -0.4326
vn -0.6641 -0.7477 -0.0046
vn -0.6638 -0.7478 -0.0078
vn -0.6660 -0.7459 -0.0026
vn -0.0000 1.0000 -0.0037
vn -0.0020 1.0000 -0.0016
vn 0.8666 -0.2486 -0.4326
vn 0.0006 1.0000 0.0007
vn 0.0000 1.0000 0.0057
vn -0.8254 0.0000 0.5645
vn -0.6641 -0.7477 0.0052
vn 0.8666 -0.2486 0.4326
vn 0.7353 -0.6725 0.0843
vn -0.6641 -0.7477 -0.0000
vn -0.6650 -0.7469 -0.0010
vn 0.6650 -0.7469 -0.0000
vn 0.6641 -0.7477 -0.0000
vn 0.0001 1.0000 0.0006
vn -0.7353 -0.6725 -0.0843
vn 0.6632 -0.7485 -0.0008
vn 0.6230 -0.6565 -0.4252
vn -0.6230 -0.6565 -0.4252
vn 0.6640 -0.7477 0.0005
vn 0.6641 -0.7476 -0.0040
vn 0.6641 -0.7477 -0.0052
vn -0.6650 -0.7468 -0.0000
vn 0.7353 -0.6725 -0.0843
vn -0.6641 -0.7477 0.0010
vn 0.6636 -0.7481 0.0010
vn 0.6640 -0.7477 0.0024
vn 0.6646 -0.7472 -0.0006
vn 0.6641 -0.7477 -0.0026
vn -0.6641 -0.7477 0.0026
vn 0.0000 1.0000 0.0040
vn 0.6641 -0.7477 0.0026
vn 0.0000 1.0000 -0.0040
vn 0.0002 1.0000 -0.0020
vn -0.6641 -0.7477 -0.0052
vn 0.6641 -0.7477 0.0052
vn -0.0002 1.0000 -0.0019
vn 0.0012 1.0000 0.0077
vn -0.0014 1.0000 -0.0089
vn 0.0000 1.0000 -0.0019
vn 0.0000 1.0000 0.0048
usemtl Material.001
s 1
f 1/1/1 49/2/2 50/3/3
f 4/4/4 51/5/4 52/6/4
f 158/7/4 54/8/4 8/9/4 106/10/4
f 9/11/5 96/12/5 56/13/5
f 11/14/6 58/15/6 57/16/6
f 9/11/5 106/10/5 96/12/5
f 13/17/7 59/18/7 60/19/7
f 157/20/8 122/21/8 11/14/8 124/22/8
f 19/23/9 146/24/10 63/25/9
f 17/26/8 127/27/8 65/28/8
f 14/29/11 66/30/12 67/31/13
f 5/32/14 107/33/15 111/34/16
f 24/35/17 73/36/17 120/37/17
f 25/38/18 70/39/18 71/40/18
f 22/41/19 69/42/19 68/43/19
f 24/35/20 98/44/20 94/45/20
f 14/29/21 139/46/21 126/47/21
f 3/48/22 72/49/22 99/50/22
f 156/51/23 110/52/24 18/53/9 118/54/25
f 13/17/26 140/55/27 144/56/28
f 155/57/29 100/58/30 24/35/31 123/59/32
f 15/60/33 142/61/33 147/62/33
f 1/1/34 95/63/34 115/64/34
f 154/65/4 120/37/4 5/66/4 51/5/4
f 3/48/35 64/67/35 72/49/35
f 9/11/36 75/68/37 76/69/38
f 17/26/8 65/28/8 122/21/8
f 8/70/39 118/54/25 128/71/40
f 13/17/7 130/72/7 59/18/7
f 1/1/41 115/64/41 49/2/41
f 153/73/42 111/34/16 20/74/9 146/24/10
f 152/75/8 130/72/8 13/17/8 127/27/8
f 5/32/14 116/76/43 107/33/15
f 24/35/17 94/45/17 73/36/17
f 22/41/44 131/77/44 69/42/44
f 24/35/31 100/58/30 98/44/45
f 14/29/46 67/31/46 139/46/46
f 11/14/6 57/16/6 124/22/6
f 13/17/47 60/19/47 140/55/47
f 30/78/48 77/79/48 109/80/49
f 151/81/50 112/82/51 33/83/51 125/84/51
f 8/70/39 128/71/40 93/85/52
f 9/11/53 56/13/53 75/68/53
f 4/4/4 52/6/4 54/8/4
f 19/23/9 63/25/9 110/52/24
f 13/17/26 78/86/54 132/87/51
f 12/88/55 145/89/55 138/90/55
f 28/91/56 108/92/56 134/93/56
f 11/14/57 143/94/58 141/95/59
f 150/96/60 55/97/48 9/11/36 76/69/38
f 11/14/61 141/95/61 58/15/61
f 30/78/48 114/98/62 77/79/48
f 149/99/63 125/84/51 33/83/51 121/100/51
f 11/14/57 129/101/64 148/102/65
f 148/102/65 101/103/51 34/104/51
f 148/102/65 129/101/64 101/103/51
f 129/101/64 21/105/51 101/103/51
f 143/94/58 149/99/63 121/100/51 32/106/66
f 11/14/57 148/102/65 149/99/63 143/94/58
f 148/102/65 34/104/51 125/84/51 149/99/63
f 77/79/48 121/107/67 33/108/48
f 77/79/48 114/98/62 121/107/67
f 114/98/62 32/109/48 121/107/67
f 58/15/61 145/89/61 12/88/61
f 58/15/61 141/95/61 145/89/61
f 141/95/61 31/110/61 145/89/61
f 114/98/62 150/96/60 76/69/38 32/109/48
f 30/78/48 74/111/48 150/96/60 114/98/62
f 74/111/48 7/112/48 55/97/48 150/96/60
f 141/95/59 117/113/59 31/110/59
f 141/95/59 143/94/58 117/113/59
f 143/94/58 32/106/66 117/113/59
f 134/93/56 137/114/56 10/115/56
f 134/93/56 108/92/56 137/114/56
f 108/92/56 31/116/56 137/114/56
f 138/90/55 108/117/55 28/118/55
f 138/90/55 145/89/55 108/117/55
f 145/89/55 31/110/55 108/117/55
f 132/87/51 101/103/51 21/105/51
f 132/87/51 78/86/54 101/103/51
f 78/86/54 34/104/51 101/103/51
f 110/52/24 62/119/9 18/53/9
f 110/52/24 63/25/9 62/119/9
f 63/25/9 16/120/9 62/119/9
f 54/8/4 103/121/4 8/9/4
f 54/8/4 52/6/4 103/121/4
f 52/6/4 6/122/4 103/121/4
f 75/68/53 137/114/53 31/116/53
f 75/68/53 56/13/53 137/114/53
f 56/13/53 10/115/53 137/114/53
f 93/85/52 50/3/3 3/123/68
f 93/85/52 128/71/40 50/3/3
f 128/71/40 1/1/1 50/3/3
f 78/86/54 151/81/50 125/84/51 34/104/51
f 13/17/26 144/56/28 151/81/50 78/86/54
f 144/56/28 29/124/69 112/82/51 151/81/50
f 109/80/49 112/125/48 29/126/48
f 109/80/49 77/79/48 112/125/48
f 77/79/48 33/108/48 112/125/48
f 140/55/47 147/62/47 27/127/47
f 140/55/47 60/19/47 147/62/47
f 60/19/47 15/60/47 147/62/47
f 124/22/6 104/128/6 18/53/6
f 124/22/6 57/16/6 104/128/6
f 57/16/6 1/1/6 104/128/6
f 139/46/46 135/129/46 25/130/46
f 139/46/46 67/31/46 135/129/46
f 67/31/46 23/131/46 135/129/46
f 98/44/45 105/132/67 27/133/45
f 98/44/45 100/58/30 105/132/67
f 100/58/30 29/126/48 105/132/67
f 69/42/44 70/39/44 25/38/44
f 69/42/44 131/77/44 70/39/44
f 131/77/44 26/134/44 70/39/44
f 73/36/17 131/77/17 22/41/17
f 73/36/17 94/45/17 131/77/17
f 94/45/17 26/134/17 131/77/17
f 107/33/15 66/30/12 14/29/11
f 107/33/15 116/76/43 66/30/12
f 116/76/43 22/135/70 66/30/12
f 61/136/8 152/75/8 127/27/8 17/26/8
f 16/120/8 136/137/8 152/75/8 61/136/8
f 136/137/8 20/74/8 130/72/8 152/75/8
f 113/138/9 153/73/42 146/24/10 19/23/9
f 6/139/9 97/140/9 153/73/42 113/138/9
f 97/140/9 5/32/14 111/34/16 153/73/42
f 49/2/41 119/141/41 2/142/41
f 49/2/41 115/64/41 119/141/41
f 115/64/41 28/118/41 119/141/41
f 59/18/7 133/143/7 14/29/7
f 59/18/7 130/72/7 133/143/7
f 130/72/7 20/74/7 133/143/7
f 128/71/40 104/128/71 1/1/1
f 128/71/40 118/54/25 104/128/71
f 118/54/25 18/53/9 104/128/71
f 122/21/8 129/101/8 11/14/8
f 122/21/8 65/28/8 129/101/8
f 65/28/8 21/105/8 129/101/8
f 76/69/38 117/144/72 32/109/48
f 76/69/38 75/68/37 117/144/72
f 75/68/37 31/116/72 117/144/72
f 72/49/35 119/145/35 28/91/35
f 72/49/35 64/67/35 119/145/35
f 64/67/35 2/146/35 119/145/35
f 53/147/4 154/65/4 51/5/4 4/4/4
f 7/112/4 123/59/4 154/65/4 53/147/4
f 123/59/4 24/35/4 120/37/4 154/65/4
f 115/64/34 138/90/34 28/118/34
f 115/64/34 95/63/34 138/90/34
f 95/63/34 12/88/34 138/90/34
f 147/62/33 71/148/33 27/127/33
f 147/62/33 142/61/33 71/148/33
f 142/61/33 25/130/33 71/148/33
f 74/111/48 155/57/29 123/59/32 7/112/48
f 30/78/48 109/80/49 155/57/29 74/111/48
f 109/80/49 29/126/48 100/58/30 155/57/29
f 144/56/28 105/149/73 29/124/69
f 144/56/28 140/55/27 105/149/73
f 140/55/27 27/127/73 105/149/73
f 103/150/74 156/51/23 118/54/25 8/70/39
f 6/139/9 113/138/9 156/51/23 103/150/74
f 113/138/9 19/23/9 110/52/24 156/51/23
f 99/50/22 134/93/22 10/115/22
f 99/50/22 72/49/22 134/93/22
f 72/49/22 28/91/22 134/93/22
f 126/47/21 142/61/21 15/60/21
f 126/47/21 139/46/21 142/61/21
f 139/46/21 25/130/21 142/61/21
f 94/45/20 102/151/20 26/134/20
f 94/45/20 98/44/20 102/151/20
f 98/44/20 27/133/20 102/151/20
f 68/43/19 135/152/19 23/153/19
f 68/43/19 69/42/19 135/152/19
f 69/42/19 25/38/19 135/152/19
f 71/40/18 102/151/18 27/133/18
f 71/40/18 70/39/18 102/151/18
f 70/39/18 26/134/18 102/151/18
f 120/37/17 116/154/17 5/66/17
f 120/37/17 73/36/17 116/154/17
f 73/36/17 22/41/17 116/154/17
f 111/34/16 133/143/75 20/74/9
f 111/34/16 107/33/15 133/143/75
f 107/33/15 14/29/11 133/143/75
f 67/31/13 68/155/76 23/131/13
f 67/31/13 66/30/12 68/155/76
f 66/30/12 22/135/70 68/155/76
f 65/28/8 132/87/8 21/105/8
f 65/28/8 127/27/8 132/87/8
f 127/27/8 13/17/8 132/87/8
f 63/25/9 136/137/77 16/120/9
f 63/25/9 146/24/10 136/137/77
f 146/24/10 20/74/9 136/137/77
f 62/119/8 157/20/8 124/22/8 18/53/8
f 16/120/8 61/136/8 157/20/8 62/119/8
f 61/136/8 17/26/8 122/21/8 157/20/8
f 60/19/7 126/47/7 15/60/7
f 60/19/7 59/18/7 126/47/7
f 59/18/7 14/29/7 126/47/7
f 96/12/5 93/156/5 3/48/5
f 96/12/5 106/10/5 93/156/5
f 106/10/5 8/9/5 93/156/5
f 57/16/6 95/63/6 1/1/6
f 57/16/6 58/15/6 95/63/6
f 58/15/6 12/88/6 95/63/6
f 56/13/5 99/50/5 10/115/5
f 56/13/5 96/12/5 99/50/5
f 96/12/5 3/48/5 99/50/5
f 55/97/4 158/7/4 106/10/4 9/11/4
f 7/112/4 53/147/4 158/7/4 55/97/4
f 53/147/4 4/4/4 54/8/4 158/7/4
f 52/6/4 97/157/4 6/122/4
f 52/6/4 51/5/4 97/157/4
f 51/5/4 5/66/4 97/157/4
f 50/3/3 64/158/78 3/123/68
f 50/3/3 49/2/2 64/158/78
f 49/2/2 2/142/78 64/158/78
l 79 35
l 80 36
l 81 37
l 82 38
l 83 39
l 84 40
l 85 41
l 86 42
l 87 43
l 88 44
l 89 45
l 90 46
l 91 47
l 92 48
l 26 79
l 22 80
l 14 81
l 15 82
l 25 83
l 23 84
l 27 85
l 10 86
l 3 87
l 1 88
l 12 89
l 28 90
l 2 91
l 31 92
